<svg width="31" height="39" viewBox="0 0 31 39" fill="none" xmlns="http://www.w3.org/2000/svg">
<path d="M15.5 0.136353C11.5232 0.141044 7.71062 1.7229 4.89859 4.53493C2.08656 7.34695 0.504708 11.1595 0.500016 15.1363C0.495253 18.3862 1.55681 21.5479 3.52183 24.1363C3.52183 24.1363 3.93092 24.675 3.99774 24.7527L15.5 38.3181L27.0077 24.7459C27.0677 24.6736 27.4782 24.1363 27.4782 24.1363L27.4795 24.1322C29.4436 21.5449 30.5046 18.3847 30.5 15.1363C30.4953 11.1595 28.9134 7.34695 26.1014 4.53493C23.2894 1.7229 19.4768 0.141044 15.5 0.136353ZM15.5 20.5909C14.4212 20.5909 13.3666 20.271 12.4696 19.6716C11.5726 19.0723 10.8735 18.2204 10.4607 17.2237C10.0478 16.227 9.9398 15.1303 10.1503 14.0722C10.3607 13.0141 10.8802 12.0422 11.6431 11.2794C12.4059 10.5166 13.3778 9.99707 14.4359 9.7866C15.4939 9.57614 16.5907 9.68416 17.5874 10.097C18.584 10.5098 19.4359 11.209 20.0353 12.106C20.6346 13.003 20.9545 14.0575 20.9545 15.1363C20.9527 16.5824 20.3775 17.9688 19.3549 18.9913C18.3324 20.0138 16.9461 20.5891 15.5 20.5909Z" fill="#64CCC5"/>
</svg>
