<svg width="34" height="27" viewBox="0 0 34 27" fill="none" xmlns="http://www.w3.org/2000/svg">
<path d="M1.86365 5.16659C1.86365 4.28253 2.21484 3.43468 2.83996 2.80956C3.46508 2.18444 4.31293 1.83325 5.19698 1.83325H28.5303C29.4144 1.83325 30.2622 2.18444 30.8873 2.80956C31.5125 3.43468 31.8636 4.28253 31.8636 5.16659V21.8333C31.8636 22.7173 31.5125 23.5652 30.8873 24.1903C30.2622 24.8154 29.4144 25.1666 28.5303 25.1666H5.19698C4.31293 25.1666 3.46508 24.8154 2.83996 24.1903C2.21484 23.5652 1.86365 22.7173 1.86365 21.8333V5.16659Z" stroke="#64CCC5" stroke-width="3.39394" stroke-linecap="round" stroke-linejoin="round"/>
<path d="M1.86365 5.1665L16.8636 15.1665L31.8636 5.1665" stroke="#64CCC5" stroke-width="3.39394" stroke-linecap="round" stroke-linejoin="round"/>
</svg>
